<?xml version="1.0" encoding="UTF-8"?>
<svg viewBox="0 0 999 666" xmlns="http://www.w3.org/2000/svg">
 <g transform="scale(7.4)" fill-rule="evenodd">
  <path d="m0 0h135v10h-135z" fill="#0061f3"/>
  <path d="m0 10h135v10h-135z" fill="#fff"/>
  <path d="m0 20h135v10h-135z" fill="#0061f3"/>
  <path d="m0 30h135v10h-135z" fill="#fff"/>
  <path d="m0 40h135v10h-135z" fill="#0061f3"/>
  <path d="m0 50h135v10h-135z" fill="#fff"/>
  <path d="m0 60h135v10h-135z" fill="#0061f3"/>
  <path d="m0 70h135v10h-135z" fill="#fff"/>
  <path d="m0 80h135v10h-135z" fill="#0061f3"/>
  <path d="m0 0h50v50h-50z" fill="#0061f3"/>
  <path d="m20 0h10v50h-10z" fill="#fff"/>
  <path d="m0 20h50v10h-50z" fill="#fff"/>
 </g>
</svg>
